<svg xmlns="http://www.w3.org/2000/svg" width="52" height="52" viewBox="0 0 52 52">
    <g fill="none" fill-rule="evenodd">
        <ellipse cx="26" cy="46.181" fill="#DCE0E9" fill-rule="nonzero" rx="26" ry="1.868"/>
        <path fill="#FFA02A" fill-rule="nonzero" d="M14.815 21.945l2.362 4.793c.155.294.437.499.764.556l5.28.764c.392.07.712.353.829.734.117.38.012.795-.273 1.073l-3.821 3.751c-.234.238-.338.575-.278.904l.903 5.28c.062.393-.102.789-.424 1.023-.323.235-.75.269-1.105.088l-4.724-2.501c-.31-.139-.663-.139-.972 0L8.63 40.911c-.355.18-.782.147-1.104-.088-.322-.234-.486-.63-.424-1.023l.903-5.28c.094-.33-.015-.683-.278-.903l-3.821-3.752c-.285-.278-.39-.693-.273-1.073.117-.38.437-.664.829-.734l5.28-.764c.337-.03.63-.244.764-.556l2.362-4.793c.196-.355.568-.575.973-.575s.777.22.973.575z"/>
        <path fill="#333" fill-rule="nonzero" d="M19.536 41.287c-.211 0-.418-.054-.603-.157l-4.722-2.499c-.238-.101-.507-.1-.744.003l-4.719 2.498c-.428.232-.952.197-1.346-.09-.414-.287-.627-.786-.546-1.283l.903-5.281c.072-.237.002-.494-.18-.661L3.73 30.043c-.351-.344-.481-.856-.335-1.327.145-.47.541-.819 1.026-.905l5.285-.765c.255-.023.476-.184.577-.42l2.361-4.792c.19-.413.594-.686 1.048-.71.536-.033 1.048.23 1.332.686l.014.024 2.362 4.794c.12.224.338.379.589.42l5.267.763c.485.083.883.432 1.03.902.147.47.018.983-.333 1.328l-3.823 3.753c-.173.18-.25.431-.208.677l.905 5.287c.08.497-.132.997-.546 1.284-.217.157-.478.243-.746.245zm-5.744-19.666c-.021 0-.043.001-.064.003-.274.01-.518.174-.631.424l-2.366 4.8c-.174.399-.555.667-.988.696l-5.245.762c-.294.049-.535.26-.621.546-.097.295-.016.62.207.836l3.82 3.75c.327.276.463.718.347 1.13l-.901 5.274c-.048.308.085.616.342.792.239.178.56.2.82.058l4.727-2.503c.38-.176.82-.177 1.201-.002l4.73 2.503c.261.145.583.123.822-.056.257-.176.39-.485.343-.793l-.904-5.28c-.072-.408.057-.826.348-1.121l3.823-3.753c.222-.217.301-.54.205-.835-.087-.287-.33-.5-.627-.547l-5.275-.763c-.408-.07-.76-.325-.952-.692l-2.356-4.782c-.176-.275-.479-.443-.805-.447z"/>
        <path fill="#FFA02A" fill-rule="nonzero" d="M39.13 21.945l2.363 4.793c.133.312.427.525.764.556l5.28.764c.392.07.712.353.83.734.116.38.01.795-.274 1.073l-3.821 3.751c-.263.22-.372.574-.278.904l.903 5.28c.062.393-.102.789-.424 1.023-.322.235-.749.269-1.104.088l-4.725-2.501c-.309-.139-.663-.139-.972 0l-4.724 2.501c-.356.18-.782.147-1.105-.088-.322-.234-.486-.63-.424-1.023l.903-5.28c.06-.328-.044-.665-.278-.903l-3.82-3.752c-.286-.278-.391-.692-.274-1.073.117-.38.437-.663.829-.733l5.28-.764c.327-.058.609-.263.764-.556l2.362-4.794c.196-.354.568-.575.973-.575s.777.22.973.575z"/>
        <path fill="#333" fill-rule="nonzero" d="M32.465 41.288c-.268-.002-.53-.088-.747-.246-.414-.287-.626-.786-.546-1.283l.904-5.282c.044-.248-.033-.502-.208-.684l-3.82-3.75c-.352-.344-.482-.856-.336-1.326.145-.47.541-.82 1.026-.905l5.285-.766c.247-.044.46-.199.576-.42l2.362-4.792c.283-.468.8-.741 1.346-.71.455.024.86.299 1.05.713l2.36 4.79c.093.226.299.384.54.417l5.315.766c.486.084.884.432 1.03.903.148.47.019.983-.333 1.328l-3.822 3.753c-.196.165-.278.43-.208.676l.904 5.288c.081.497-.131.997-.545 1.283-.395.288-.92.323-1.35.09l-4.721-2.5c-.238-.101-.507-.1-.744.003l-4.719 2.498c-.184.101-.39.154-.599.156zm5.743-19.667c-.33.004-.637.176-.811.458l-2.35 4.77c-.188.363-.536.619-.94.69l-5.293.767c-.294.049-.535.26-.621.546-.097.295-.016.62.206.836l3.82 3.75c.293.298.423.72.348 1.13l-.902 5.273c-.048.309.086.617.343.793.238.178.558.2.82.057l4.726-2.502c.381-.176.82-.177 1.202-.003l4.73 2.504c.261.143.582.122.822-.056.258-.177.39-.485.342-.794l-.902-5.279c-.114-.422.033-.872.374-1.145l3.795-3.73c.223-.216.302-.54.206-.834-.087-.288-.33-.5-.627-.548l-5.274-.763h-.005c-.419-.04-.782-.305-.948-.691l-2.366-4.803c-.113-.249-.357-.413-.631-.424l-.064-.002z"/>
        <path fill="#FFBE31" fill-rule="nonzero" d="M27.216 21.45l2.953 5.991c.166.39.533.657.955.695l6.6.955c.49.088.89.442 1.036.917.146.476.015.994-.341 1.341l-4.777 4.69c-.328.275-.464.717-.347 1.13l1.129 6.6c.078.491-.127.986-.53 1.279-.403.293-.936.336-1.38.11l-5.906-3.127c-.387-.174-.83-.174-1.216 0l-5.905 3.126c-.445.226-.978.183-1.38-.11-.404-.293-.608-.787-.53-1.28l1.129-6.6c.074-.41-.055-.831-.348-1.129l-4.776-4.69c-.356-.347-.488-.865-.342-1.34.147-.476.547-.83 1.037-.918l6.6-.955c.408-.072.76-.328.955-.695l2.953-5.992c.244-.442.71-.717 1.215-.717.506 0 .972.275 1.216.718z"/>
        <path fill="#333" fill-rule="nonzero" d="M18.884 45.565c-.323-.002-.637-.106-.898-.295-.498-.345-.753-.945-.656-1.543l1.129-6.601c.06-.33-.043-.67-.278-.91l-4.775-4.689c-.423-.413-.58-1.029-.405-1.594.175-.565.651-.985 1.234-1.088l6.606-.956c.328-.059.61-.265.767-.56l2.952-5.99c.34-.563.965-.891 1.622-.852.546.028 1.032.358 1.26.855l2.95 5.99c.128.301.406.513.732.554l6.636.958c.584.1 1.062.52 1.238 1.085.176.566.02 1.182-.403 1.597l-4.777 4.691c-.262.22-.37.573-.278.902l1.13 6.607c.097.598-.158 1.199-.657 1.544-.472.35-1.105.392-1.62.106l-5.902-3.124c-.315-.137-.673-.136-.987.003l-5.9 3.123c-.22.122-.468.186-.72.187zm7.178-24.583c-.435.005-.837.232-1.067.602l-2.94 5.968c-.227.437-.644.743-1.13.83l-6.614.957c-.391.064-.712.346-.827.726-.128.391-.021.82.274 1.107l4.775 4.689c.351.357.507.863.417 1.356l-1.127 6.593c-.065.409.112.818.453 1.052.318.237.744.266 1.091.076l5.908-3.128c.458-.211.986-.212 1.445-.003l5.91 3.129c.347.193.775.164 1.094-.074.341-.234.517-.644.453-1.053l-1.129-6.599c-.137-.505.037-1.043.444-1.371l4.751-4.668c.295-.287.4-.716.273-1.106-.116-.382-.44-.664-.833-.727l-6.595-.954h-.005c-.503-.049-.939-.367-1.138-.83l-2.957-6c-.15-.334-.476-.553-.841-.568-.028-.003-.056-.004-.084-.004zM26 10.617c-.138 0-.25-.112-.25-.25v-5.2c0-.138.112-.25.25-.25s.25.112.25.25v5.2c0 .138-.112.25-.25.25zM30.825 11.468c-.082 0-.158-.04-.205-.107-.047-.067-.058-.152-.03-.229l1.779-4.886c.03-.084.103-.146.191-.161.088-.016.178.017.235.085.058.069.074.163.044.247l-1.779 4.886c-.036.1-.13.165-.235.165zM35.068 13.918c-.097 0-.186-.057-.227-.145-.04-.088-.027-.192.035-.266l3.343-3.984c.09-.1.244-.112.347-.025.104.087.12.24.036.346l-3.343 3.984c-.047.057-.117.09-.191.09zM16.932 13.918c-.074 0-.144-.033-.191-.09l-3.343-3.984c-.084-.106-.069-.26.035-.347.104-.087.259-.076.348.026l3.342 3.984c.063.074.077.178.036.266-.041.088-.13.145-.227.145zM21.175 11.468c-.105 0-.199-.066-.235-.165l-1.778-4.887c-.048-.13.02-.273.15-.32.129-.047.272.02.32.15l1.778 4.886c.028.077.017.162-.03.23-.047.066-.123.106-.205.106z"/>
        <path d="M0 0H52V52H0z"/>
    </g>
</svg>
