<?xml version="1.0" encoding="utf-8"?>
<!-- Generator: Adobe Illustrator 26.1.0, SVG Export Plug-In . SVG Version: 6.00 Build 0)  -->
<svg version="1.1" id="Layer_1" xmlns="http://www.w3.org/2000/svg" xmlns:xlink="http://www.w3.org/1999/xlink" x="0px" y="0px"
	 viewBox="0 0 52 52" style="enable-background:new 0 0 52 52;" xml:space="preserve">
<style type="text/css">
	.st0{fill:#DCE0E9;}
	.st1{fill:#BEBEBE;}
	.st2{fill:#F59852;}
	.st3{fill:#E5E5E5;}
	.st4{fill:url(#SVGID_1_);}
	.st5{fill:#01AFD4;}
	.st6{fill:none;stroke:#333333;stroke-width:0.6;stroke-linecap:round;stroke-miterlimit:10;}
	.st7{fill:#413D7C;}
	.st8{fill:#070707;}
	.st9{fill:none;stroke:#FFFFFF;stroke-width:0.6;stroke-linecap:round;stroke-miterlimit:10;}
	.st10{fill:#444444;}
	.st11{fill:#CF5252;}
</style>
<ellipse class="st0" cx="26" cy="50.1" rx="26" ry="1.9"/>
<g>
	<g>
		<g>
			<path class="st1" d="M32.5,43.3H21.2V50c0,0.4,0.4,0.7,0.8,0.7h9.7c0.4,0,0.8-0.3,0.8-0.7V43.3z"/>
			<polygon class="st2" points="21.2,43.3 17.2,3.4 36.7,3.4 32.5,43.3 			"/>
			<path class="st3" d="M17.2,3.8c0,0,12.2,3.6,13.3,14.6S20.2,33,20.2,33L17.2,3.8z"/>
			<linearGradient id="SVGID_1_" gradientUnits="userSpaceOnUse" x1="17.1653" y1="2.5013" x2="36.6501" y2="2.5013">
				<stop  offset="0" style="stop-color:#E6E6E6"/>
				<stop  offset="0.9952" style="stop-color:#C9C9C9"/>
			</linearGradient>
			<path class="st4" d="M36.2,1.6h-19v1.8h19.5V2.3C36.7,1.9,36.5,1.6,36.2,1.6z"/>
			<polygon class="st5" points="17.7,9 18.4,15.3 35.4,15.3 36,9.2 			"/>
		</g>
		<line class="st6" x1="32" y1="34.8" x2="31.3" y2="40.5"/>
	</g>
	<g>
		<path class="st7" d="M9.5,28.6L9.5,28.6l-0.1-1.2c0-0.3-0.3-0.6-0.6-0.6H5c-0.3,0-0.6,0.3-0.6,0.6v1.2H4.3c-0.3,0-0.6,0.3-0.6,0.6
			v19.4c0,1.2,0.9,2.1,2.1,2.1H8c1.2,0,2.1-0.9,2.1-2.1V29.2C10.2,28.9,9.9,28.6,9.5,28.6z M4.9,48.6 M5.6,28h2.5v0.6H5.6V28z"/>
		<path class="st7" d="M16.7,38.9L16.7,38.9l-0.1-1.5c0-0.3-0.3-0.6-0.6-0.6h-0.7v-6.5h0c0.3,0,0.6-0.3,0.6-0.6S15.6,29,15.3,29h0
			v-0.2h0.1c0.3,0,0.6-0.3,0.6-0.6c0-0.3-0.3-0.6-0.6-0.6h-0.1v-0.2h0.4c0.3,0,0.6-0.3,0.6-0.6s-0.3-0.6-0.6-0.6h-0.4v-0.2h0.7
			c0.3,0,0.6-0.3,0.6-0.6s-0.3-0.6-0.6-0.6h-0.7v-0.2h0.4c0.3,0,0.6-0.3,0.6-0.6s-0.3-0.6-0.6-0.6h-0.4v-0.2h0.1
			c0.3,0,0.6-0.3,0.6-0.6c0-0.3-0.3-0.6-0.6-0.6h-0.1v-0.2h0c0.3,0,0.6-0.3,0.6-0.6c0-0.3-0.3-0.6-0.6-0.6h0v-0.1
			c0-0.3-0.3-0.6-0.6-0.6c-0.3,0-0.6,0.3-0.6,0.6v0.1h0c-0.3,0-0.6,0.3-0.6,0.6c0,0.3,0.3,0.6,0.6,0.6h0v0.2h-0.1
			c-0.3,0-0.6,0.3-0.6,0.6c0,0.3,0.3,0.6,0.6,0.6H14v0.2h-0.4c-0.3,0-0.6,0.3-0.6,0.6s0.3,0.6,0.6,0.6H14v0.2h-0.7
			c-0.3,0-0.6,0.3-0.6,0.6s0.3,0.6,0.6,0.6H14v0.2h-0.4c-0.3,0-0.6,0.3-0.6,0.6s0.3,0.6,0.6,0.6H14v0.2h-0.1c-0.3,0-0.6,0.3-0.6,0.6
			c0,0.3,0.3,0.6,0.6,0.6H14V29h0c-0.3,0-0.6,0.3-0.6,0.6s0.3,0.6,0.6,0.6h0v6.5h-0.7c-0.3,0-0.6,0.3-0.6,0.6v1.5h-0.1
			c-0.3,0-0.6,0.3-0.6,0.6v9.1c0,1.2,0.9,2.1,2.1,2.1h1.2c1.2,0,2.1-0.9,2.1-2.1v-9.1C17.3,39.2,17,38.9,16.7,38.9z M13.9,38h1.4
			v0.8h-1.4V38z"/>
		<path class="st8" d="M15.9,36.8h-0.7v-6.5h0c0.3,0,0.6-0.3,0.6-0.6S15.6,29,15.3,29h0v-0.2h0.1c0.3,0,0.6-0.3,0.6-0.6
			c0-0.3-0.3-0.6-0.6-0.6h-0.1v-0.2h0.4c0.3,0,0.6-0.3,0.6-0.6s-0.3-0.6-0.6-0.6h-0.4v-0.2h0.7c0.3,0,0.6-0.3,0.6-0.6
			s-0.3-0.6-0.6-0.6h-0.7v-0.2h0.4c0.3,0,0.6-0.3,0.6-0.6s-0.3-0.6-0.6-0.6h-0.4v-0.2h0.1c0.3,0,0.6-0.3,0.6-0.6
			c0-0.3-0.3-0.6-0.6-0.6h-0.1v-0.2h0c0.3,0,0.6-0.3,0.6-0.6c0-0.3-0.3-0.6-0.6-0.6h0v-0.1c0-0.3-0.3-0.6-0.6-0.6
			c-0.3,0-0.6,0.3-0.6,0.6v0.1h0c-0.3,0-0.6,0.3-0.6,0.6c0,0.3,0.3,0.6,0.6,0.6h0v0.2h-0.1c-0.3,0-0.6,0.3-0.6,0.6
			c0,0.3,0.3,0.6,0.6,0.6H14v0.2h-0.4c-0.3,0-0.6,0.3-0.6,0.6s0.3,0.6,0.6,0.6H14v0.2h-0.7c-0.3,0-0.6,0.3-0.6,0.6s0.3,0.6,0.6,0.6
			H14v0.2h-0.4c-0.3,0-0.6,0.3-0.6,0.6s0.3,0.6,0.6,0.6H14v0.2h-0.1c-0.3,0-0.6,0.3-0.6,0.6c0,0.3,0.3,0.6,0.6,0.6H14V29h0
			c-0.3,0-0.6,0.3-0.6,0.6s0.3,0.6,0.6,0.6h0v6.5h-0.7"/>
		<line class="st9" x1="8.8" y1="32.2" x2="8.7" y2="48.7"/>
		<line class="st9" x1="16.1" y1="39.9" x2="16" y2="48.7"/>
	</g>
	<g>
		<path class="st10" d="M47.7,38.4h-0.8V28.3c0-0.4-0.3-0.7-0.7-0.7h-0.1v-5c0,0,0-0.7-0.2-1.4c-0.4-1.5-1.3-1.8-1.8-1.8
			c-0.6,0-1.3,0.6-2.3,1.9c-0.6,0.8-1.1,1.6-1.1,1.7c-0.1,0.1-0.1,0.2-0.1,0.3v4.3h-0.1c-0.4,0-0.7,0.3-0.7,0.7v10.1H39
			c-0.4,0-0.7,0.3-0.7,0.7v9.2c0,1.3,1.1,2.4,2.4,2.4H46c1.3,0,2.4-1.1,2.4-2.4v-9.2C48.4,38.7,48.1,38.4,47.7,38.4z M44.1,20.8
			c0.3,0.1,0.6,1.1,0.6,1.8v5H42v-4.1C42.8,22.2,43.8,21,44.1,20.8z"/>
		<path class="st11" d="M46.1,27.6L46.1,27.6l-0.1-5c0,0,0-0.7-0.2-1.4c-0.4-1.5-1.3-1.8-1.8-1.8c-0.6,0-1.3,0.6-2.3,1.9
			c-0.6,0.8-1.1,1.6-1.1,1.7c-0.1,0.1-0.1,0.2-0.1,0.3v4.3h-0.1"/>
		<line class="st9" x1="47.1" y1="40.1" x2="47" y2="49"/>
		<line class="st9" x1="45.4" y1="29.1" x2="45.4" y2="37.9"/>
	</g>
</g>
</svg>
